<mxfile host="app.diagrams.net" modified="2023-07-06T07:59:06.977Z" agent="Mozilla/5.0 (Windows NT 10.0; Win64; x64) AppleWebKit/537.36 (KHTML, like Gecko) Chrome/114.0.0.0 Safari/537.36" etag="jl_7sr0wfXVi7g1aFCir" version="21.5.2" type="device">
  <diagram name="Page-1" id="mRNXuIpw4a3sV6ow3VSS">
    <mxGraphModel dx="2140" dy="573" grid="1" gridSize="10" guides="1" tooltips="1" connect="1" arrows="1" fold="1" page="1" pageScale="1" pageWidth="850" pageHeight="1100" math="0" shadow="0">
      <root>
        <mxCell id="0" />
        <mxCell id="1" parent="0" />
        <mxCell id="mmJfzntcW0xnmPNARr-9-3" style="edgeStyle=orthogonalEdgeStyle;rounded=0;orthogonalLoop=1;jettySize=auto;html=1;exitX=0.25;exitY=1;exitDx=0;exitDy=0;entryX=0.75;entryY=0;entryDx=0;entryDy=0;" edge="1" parent="1" source="mmJfzntcW0xnmPNARr-9-1" target="mmJfzntcW0xnmPNARr-9-2">
          <mxGeometry relative="1" as="geometry">
            <Array as="points">
              <mxPoint x="360" y="210" />
              <mxPoint x="360" y="235" />
              <mxPoint x="260" y="235" />
            </Array>
          </mxGeometry>
        </mxCell>
        <mxCell id="mmJfzntcW0xnmPNARr-9-5" style="edgeStyle=orthogonalEdgeStyle;rounded=0;orthogonalLoop=1;jettySize=auto;html=1;exitX=0.5;exitY=1;exitDx=0;exitDy=0;entryX=0.5;entryY=0;entryDx=0;entryDy=0;" edge="1" parent="1" source="mmJfzntcW0xnmPNARr-9-1" target="mmJfzntcW0xnmPNARr-9-4">
          <mxGeometry relative="1" as="geometry" />
        </mxCell>
        <mxCell id="mmJfzntcW0xnmPNARr-9-1" value="$albums" style="rounded=1;whiteSpace=wrap;html=1;" vertex="1" parent="1">
          <mxGeometry x="300" y="150" width="120" height="60" as="geometry" />
        </mxCell>
        <mxCell id="mmJfzntcW0xnmPNARr-9-8" style="edgeStyle=orthogonalEdgeStyle;rounded=0;orthogonalLoop=1;jettySize=auto;html=1;exitX=0.25;exitY=1;exitDx=0;exitDy=0;entryX=0.617;entryY=0.037;entryDx=0;entryDy=0;entryPerimeter=0;" edge="1" parent="1" source="mmJfzntcW0xnmPNARr-9-2" target="mmJfzntcW0xnmPNARr-9-6">
          <mxGeometry relative="1" as="geometry">
            <Array as="points">
              <mxPoint x="230" y="320" />
              <mxPoint x="230" y="345" />
              <mxPoint x="114" y="345" />
            </Array>
          </mxGeometry>
        </mxCell>
        <mxCell id="mmJfzntcW0xnmPNARr-9-12" style="edgeStyle=orthogonalEdgeStyle;rounded=0;orthogonalLoop=1;jettySize=auto;html=1;exitX=0.5;exitY=1;exitDx=0;exitDy=0;entryX=0.57;entryY=-0.03;entryDx=0;entryDy=0;entryPerimeter=0;" edge="1" parent="1" source="mmJfzntcW0xnmPNARr-9-2" target="mmJfzntcW0xnmPNARr-9-11">
          <mxGeometry relative="1" as="geometry" />
        </mxCell>
        <mxCell id="mmJfzntcW0xnmPNARr-9-2" value="album 1" style="rounded=1;whiteSpace=wrap;html=1;" vertex="1" parent="1">
          <mxGeometry x="170" y="260" width="120" height="60" as="geometry" />
        </mxCell>
        <mxCell id="mmJfzntcW0xnmPNARr-9-4" value="album 2" style="rounded=1;whiteSpace=wrap;html=1;" vertex="1" parent="1">
          <mxGeometry x="360" y="260" width="120" height="60" as="geometry" />
        </mxCell>
        <mxCell id="mmJfzntcW0xnmPNARr-9-6" value="track 1 album 1" style="rounded=1;whiteSpace=wrap;html=1;" vertex="1" parent="1">
          <mxGeometry x="40" y="370" width="120" height="60" as="geometry" />
        </mxCell>
        <mxCell id="mmJfzntcW0xnmPNARr-9-7" value="@artist @title&amp;nbsp;&lt;br&gt;@genre&lt;br&gt;@tracks" style="text;html=1;strokeColor=none;fillColor=none;align=center;verticalAlign=middle;whiteSpace=wrap;rounded=0;" vertex="1" parent="1">
          <mxGeometry x="110" y="275" width="60" height="30" as="geometry" />
        </mxCell>
        <mxCell id="mmJfzntcW0xnmPNARr-9-10" value="$albums[number]" style="text;html=1;strokeColor=none;fillColor=none;align=center;verticalAlign=middle;whiteSpace=wrap;rounded=0;" vertex="1" parent="1">
          <mxGeometry x="230" y="200" width="60" height="30" as="geometry" />
        </mxCell>
        <mxCell id="mmJfzntcW0xnmPNARr-9-11" value="track 2 album 1" style="rounded=1;whiteSpace=wrap;html=1;" vertex="1" parent="1">
          <mxGeometry x="220" y="370" width="120" height="60" as="geometry" />
        </mxCell>
        <mxCell id="mmJfzntcW0xnmPNARr-9-13" value="@name&lt;br&gt;@location" style="text;html=1;strokeColor=none;fillColor=none;align=center;verticalAlign=middle;whiteSpace=wrap;rounded=0;" vertex="1" parent="1">
          <mxGeometry x="-40" y="380" width="60" height="30" as="geometry" />
        </mxCell>
      </root>
    </mxGraphModel>
  </diagram>
</mxfile>
